<svg width="278" height="50" viewBox="0 0 278 50" fill="none" xmlns="http://www.w3.org/2000/svg">
<path d="M22.6807 49.9736C32.5161 50.2598 39.6363 48.217 43.8264 43.9046C46.6979 40.9343 48.1533 36.8292 47.9872 32.1122C47.8993 29.507 47.5184 26.7834 46.7468 23.3493C45.5552 18.0007 44.471 15.0698 42.5371 11.9515C42.2246 11.4483 41.9707 11.024 41.9707 11.014C41.9708 11.004 42.2638 10.6784 42.6348 10.3034C43.338 9.56334 43.8068 8.76398 44.0608 7.88573C44.3049 7.07652 44.2756 5.15236 44.0217 4.31357C43.5138 2.63598 41.8241 0.899076 40.0954 0.287243C39.3433 0.0208139 37.5951 -0.0876552 36.7844 0.0800806C35.583 0.336652 34.0398 1.32346 33.2389 2.33988C32.8873 2.77405 32.4673 3.46475 32.4477 3.61284C32.4477 3.62271 32.184 3.54378 31.8617 3.43523C29.3125 2.57672 24.7318 2.08331 21.7528 2.34973C19.8287 2.51749 17.3673 2.99121 15.8436 3.49448C15.6776 3.54378 15.5799 3.46481 15.3357 3.08001C14.5251 1.82676 13.4019 0.918833 11.9954 0.356345C11.3411 0.0899067 11.1164 0.0504345 10.0811 0.0208301C9.25089 0.001094 8.75269 0.0406528 8.38154 0.139331C7.41462 0.415649 6.32068 1.06694 5.58816 1.81691C4.40638 3.01094 3.83015 4.4418 3.83014 6.20816C3.83014 7.3726 4.04494 8.19174 4.59189 9.16869C4.91419 9.75088 5.61741 10.7278 5.86162 10.9351C5.99835 11.0436 5.93981 11.1819 5.39287 12.07C3.06832 15.8692 1.66187 20.2507 0.460518 27.3755C0.0307676 29.9116 -0.0864762 31.7372 0.0600273 33.5431C0.362805 37.4114 1.13439 39.8488 2.77524 42.1481C3.96682 43.8158 5.80304 45.5231 7.47321 46.51C11.1945 48.7106 15.8632 49.7762 22.6807 49.9736ZM27.2223 38.6351C25.7474 38.8522 21.4011 38.7831 20.0435 38.5265C17.0841 37.9641 15.199 36.2865 14.6618 33.7405C14.5446 33.1682 14.5154 32.6352 14.5545 31.3721C14.6033 29.7735 14.7107 29.0037 15.1111 27.4051C15.2284 26.9709 15.3064 26.6058 15.2869 26.5861C15.267 26.5761 14.9547 26.507 14.5838 26.4479C13.0894 26.1814 11.8001 25.4611 10.6573 24.2375C9.41689 22.9151 8.7919 21.4743 8.69423 19.7079C8.5575 17.3099 9.26066 15.5435 11.0383 13.8462C12.1419 12.7804 13.3629 12.1784 14.867 11.9416C15.6093 11.8232 17.0255 11.8923 17.8459 12.0897C19.604 12.5041 21.45 13.9152 22.2606 15.4547L22.4852 15.879H25.6107L25.8452 15.4251C26.1968 14.7738 27.32 13.5897 28.1013 13.0667C29.4589 12.1489 31.3245 11.7048 32.9166 11.9121C34.7528 12.1489 36.0909 12.8001 37.3313 14.0534C38.6792 15.4152 39.314 16.8363 39.4019 18.7409C39.5191 21.1388 38.7573 23.0335 37.009 24.6618C36.1007 25.5104 34.8798 26.1617 33.7078 26.4085C33.2878 26.4973 32.9263 26.5762 32.9166 26.5861C32.9069 26.5866 33.0045 27.1094 33.1314 27.7505C33.61 30.1386 33.6882 32.645 33.3268 33.9772C32.6334 36.5627 30.5627 38.1416 27.2223 38.6351ZM14.0465 23.517C17.0157 24.9775 20.3951 23.0433 20.737 19.7079C20.9616 17.4777 19.4184 15.2475 17.2697 14.6751C15.5995 14.2409 14.0367 14.6751 12.8061 15.9185C11.9563 16.7869 11.4974 17.7639 11.429 18.8592C11.302 20.8723 12.2982 22.6486 14.0465 23.517ZM30.5237 23.7637C31.3148 24.04 32.6333 24.04 33.4635 23.7834C35.4071 23.1716 36.6964 21.3361 36.6964 19.1849C36.6964 17.8724 36.2862 16.856 35.3778 15.9185C34.7235 15.2376 34.0593 14.8627 33.1607 14.6456C31.0022 14.1324 28.8632 15.1389 27.8963 17.1125C27.5251 17.8625 27.4861 18.0303 27.4373 18.8592C27.3884 19.9348 27.5056 20.6453 27.8963 21.4644C28.4237 22.5795 29.3125 23.3591 30.5237 23.7637ZM18.0511 19.6685C17.6604 21.4348 15.4433 21.8986 14.3885 20.4283C14.115 20.0434 14.0857 19.9348 14.0857 19.2835C14.0857 18.6421 14.115 18.5138 14.3787 18.1388C14.5447 17.9118 14.867 17.6159 15.1014 17.4876C16.5957 16.6883 18.4125 18.0303 18.0511 19.6685ZM32.0082 21.3065C30.8948 21.3065 30.0548 20.4381 30.0548 19.2835C30.0548 18.425 30.4748 17.754 31.2268 17.4087C31.7542 17.1718 32.6723 17.2508 33.1607 17.5764C33.6393 17.9021 34.0593 18.7013 34.0593 19.2737C34.0495 20.3493 33.0924 21.3065 32.0082 21.3065ZM25.9721 36.1582C29.2832 35.7734 30.7287 34.2635 30.7385 31.1945C30.7385 30.1978 30.5432 28.7175 30.2502 27.4446C30.0353 26.5268 29.9083 26.2407 29.7325 26.2407C29.4784 26.2406 27.9646 25.4314 27.4762 25.0465C25.9038 23.7834 24.8881 21.6618 24.8783 19.6488V18.9382H23.3449L23.2862 19.8065C23.1788 21.267 22.6318 22.698 21.7137 23.9413C21.0203 24.869 19.8775 25.6683 18.5003 26.1913C18.0803 26.3492 18.0315 26.4084 17.8948 26.8623C17.631 27.7505 17.3576 29.4084 17.299 30.4248C17.0841 33.9181 18.6761 35.7832 22.1727 36.1582L22.8271 36.2272V33.1977L22.0947 32.8228C20.5222 32.0037 19.9264 30.6122 20.5808 29.2997C21.0985 28.2834 22.0947 27.9577 24.4094 28.0465C26.0307 28.1057 26.5289 28.2439 27.0466 28.7866C27.3982 29.1517 27.7107 29.882 27.7107 30.336C27.7107 31.1748 26.9097 32.2899 25.9233 32.8228L25.4154 33.0991L25.3568 36.2272L25.9721 36.1582Z" fill="#F0F6FC"/>
<path d="M70.925 42L68.81 10.59H73.895L74.885 28.68L75.29 36.15H75.695L78.845 17.835H84.335L87.485 36.15H87.89L88.295 28.68L89.285 10.59H94.19L92.075 42H84.47L81.68 24.225H81.32L78.53 42H70.925ZM107.582 42.54C105.812 42.54 104.222 42.255 102.812 41.685C101.432 41.115 100.247 40.305 99.2574 39.255C98.2974 38.205 97.5474 36.93 97.0074 35.43C96.4974 33.93 96.2424 32.25 96.2424 30.39C96.2424 28.53 96.4974 26.85 97.0074 25.35C97.5474 23.85 98.2974 22.575 99.2574 21.525C100.247 20.475 101.432 19.665 102.812 19.095C104.222 18.525 105.812 18.24 107.582 18.24C109.322 18.24 110.897 18.525 112.307 19.095C113.717 19.665 114.902 20.475 115.862 21.525C116.852 22.575 117.602 23.85 118.112 25.35C118.652 26.85 118.922 28.53 118.922 30.39C118.922 32.25 118.652 33.93 118.112 35.43C117.602 36.93 116.852 38.205 115.862 39.255C114.902 40.305 113.717 41.115 112.307 41.685C110.897 42.255 109.322 42.54 107.582 42.54ZM107.582 38.13C109.232 38.13 110.537 37.635 111.497 36.645C112.457 35.625 112.937 34.14 112.937 32.19V28.59C112.937 26.64 112.457 25.17 111.497 24.18C110.537 23.16 109.232 22.65 107.582 22.65C105.932 22.65 104.627 23.16 103.667 24.18C102.707 25.17 102.227 26.64 102.227 28.59V32.19C102.227 34.14 102.707 35.625 103.667 36.645C104.627 37.635 105.932 38.13 107.582 38.13ZM123.09 42L120.975 10.59H126.06L127.05 28.68L127.455 36.15H127.86L131.01 17.835H136.5L139.65 36.15H140.055L140.46 28.68L141.45 10.59H146.355L144.24 42H136.635L133.845 24.225H133.485L130.695 42H123.09ZM161.187 15.18C159.837 15.18 158.877 14.895 158.307 14.325C157.767 13.755 157.497 13.065 157.497 12.255V11.175C157.497 10.365 157.767 9.675 158.307 9.105C158.877 8.535 159.837 8.25 161.187 8.25C162.537 8.25 163.482 8.535 164.022 9.105C164.592 9.675 164.877 10.365 164.877 11.175V12.255C164.877 13.065 164.592 13.755 164.022 14.325C163.482 14.895 162.537 15.18 161.187 15.18ZM150.657 37.455H158.307V23.325H150.657V18.78H164.067V37.455H171.177V42H150.657V37.455ZM175.93 42V10.59H187.855C190.915 10.59 193.255 11.46 194.875 13.2C196.495 14.94 197.305 17.31 197.305 20.31C197.305 23.31 196.495 25.68 194.875 27.42C193.255 29.16 190.915 30.03 187.855 30.03H181.825V42H175.93ZM181.825 25.215H186.64C188.23 25.215 189.37 24.9 190.06 24.27C190.75 23.61 191.095 22.575 191.095 21.165V19.455C191.095 18.045 190.75 17.025 190.06 16.395C189.37 15.735 188.23 15.405 186.64 15.405H181.825V25.215ZM201.652 37.455H209.032V13.245H201.652V8.7H214.792V37.455H222.217V42H201.652V37.455ZM246.545 42C245.135 42 244.04 41.655 243.26 40.965C242.51 40.245 242.06 39.255 241.91 37.995H241.685C241.265 39.435 240.44 40.56 239.21 41.37C237.98 42.15 236.465 42.54 234.665 42.54C232.325 42.54 230.465 41.925 229.085 40.695C227.705 39.465 227.015 37.755 227.015 35.565C227.015 30.885 230.45 28.545 237.32 28.545H241.415V27.015C241.415 25.545 241.055 24.435 240.335 23.685C239.615 22.935 238.445 22.56 236.825 22.56C235.355 22.56 234.17 22.845 233.27 23.415C232.37 23.985 231.605 24.72 230.975 25.62L227.69 22.83C228.41 21.54 229.565 20.46 231.155 19.59C232.775 18.69 234.86 18.24 237.41 18.24C240.47 18.24 242.855 18.96 244.565 20.4C246.305 21.81 247.175 23.925 247.175 26.745V37.68H249.92V42H246.545ZM236.6 38.58C237.98 38.58 239.12 38.265 240.02 37.635C240.95 36.975 241.415 36.09 241.415 34.98V31.875H237.455C234.305 31.875 232.73 32.865 232.73 34.845V35.745C232.73 36.675 233.075 37.38 233.765 37.86C234.455 38.34 235.4 38.58 236.6 38.58ZM265.652 42C263.432 42 261.797 41.415 260.747 40.245C259.697 39.075 259.172 37.56 259.172 35.7V23.325H252.422V18.78H257.012C257.942 18.78 258.602 18.6 258.992 18.24C259.382 17.85 259.577 17.175 259.577 16.215V10.59H264.932V18.78H274.382V23.325H264.932V37.455H274.382V42H265.652Z" fill="#F0F6FC"/>
</svg>
